<svg width="20" height="28" viewBox="0 0 20 28" fill="none" xmlns="http://www.w3.org/2000/svg">
<path d="M17.8437 8.23593C18.4948 7.55234 18.4948 6.44218 17.8437 5.75859C17.1927 5.075 16.1354 5.075 15.4843 5.75859L9.99996 11.5227L4.51038 5.76406C3.85933 5.08047 2.80204 5.08047 2.151 5.76406C1.49996 6.44765 1.49996 7.55781 2.151 8.2414L7.64058 14L2.15621 19.7641C1.50517 20.4477 1.50517 21.5578 2.15621 22.2414C2.80725 22.925 3.86454 22.925 4.51558 22.2414L9.99996 16.4773L15.4895 22.2359C16.1406 22.9195 17.1979 22.9195 17.8489 22.2359C18.5 21.5523 18.5 20.4422 17.8489 19.7586L12.3593 14L17.8437 8.23593Z" fill="#BD5858"/>
</svg>
