<svg width="39" height="34" viewBox="0 0 39 34" fill="none" xmlns="http://www.w3.org/2000/svg">
<g clip-path="url(#clip0_14_36)">
<path d="M0 4.25C0 1.90586 1.94323 0 4.33333 0H15.1667V8.5C15.1667 9.67539 16.1349 10.625 17.3333 10.625H26V13.1883C20.9964 14.5762 17.3333 19.0852 17.3333 24.4375C17.3333 28.3621 19.3036 31.8285 22.3234 33.9535C22.1068 33.9867 21.8901 34 21.6667 34H4.33333C1.94323 34 0 32.0941 0 29.75V4.25ZM26 8.5H17.3333V0L26 8.5ZM29.25 14.875C31.8359 14.875 34.3158 15.8825 36.1443 17.6758C37.9728 19.4691 39 21.9014 39 24.4375C39 26.9736 37.9728 29.4059 36.1443 31.1992C34.3158 32.9925 31.8359 34 29.25 34C26.6641 34 24.1842 32.9925 22.3557 31.1992C20.5272 29.4059 19.5 26.9736 19.5 24.4375C19.5 21.9014 20.5272 19.4691 22.3557 17.6758C24.1842 15.8825 26.6641 14.875 29.25 14.875ZM30.3333 20.1875C30.3333 19.6031 29.8458 19.125 29.25 19.125C28.6542 19.125 28.1667 19.6031 28.1667 20.1875V23.375H24.9167C24.3208 23.375 23.8333 23.8531 23.8333 24.4375C23.8333 25.0219 24.3208 25.5 24.9167 25.5H28.1667V28.6875C28.1667 29.2719 28.6542 29.75 29.25 29.75C29.8458 29.75 30.3333 29.2719 30.3333 28.6875V25.5H33.5833C34.1792 25.5 34.6667 25.0219 34.6667 24.4375C34.6667 23.8531 34.1792 23.375 33.5833 23.375H30.3333V20.1875Z" fill="white"/>
</g>
<defs>
<clipPath id="clip0_14_36">
<rect width="39" height="34" fill="white"/>
</clipPath>
</defs>
</svg>
