<svg width="27" height="27" viewBox="0 0 27 27" fill="none" xmlns="http://www.w3.org/2000/svg">
<path d="M23.625 25.3125H3.375C1.51348 25.3125 0 23.799 0 21.9375V5.0625C0 3.20098 1.51348 1.6875 3.375 1.6875H10.125C11.185 1.6875 12.1869 2.18848 12.825 3.0375L13.8375 4.3875C14.1539 4.81465 14.6549 5.0625 15.1875 5.0625H23.625C25.4865 5.0625 27 6.57598 27 8.4375V21.9375C27 23.799 25.4865 25.3125 23.625 25.3125ZM9.70312 14.3438C9.00176 14.3438 8.4375 14.908 8.4375 15.6094C8.4375 16.3107 9.00176 16.875 9.70312 16.875H17.2969C17.9982 16.875 18.5625 16.3107 18.5625 15.6094C18.5625 14.908 17.9982 14.3438 17.2969 14.3438H9.70312Z" fill="#62D3B7"/>
</svg>
