<svg width="27" height="27" viewBox="0 0 27 27" fill="none" xmlns="http://www.w3.org/2000/svg">
<path d="M27 21.9375C27 23.799 25.4865 25.3125 23.625 25.3125H3.375C1.51348 25.3125 0 23.799 0 21.9375V5.0625C0 3.20098 1.51348 1.6875 3.375 1.6875H10.125C11.185 1.6875 12.1869 2.18848 12.825 3.0375L13.8375 4.3875C14.1539 4.81465 14.6549 5.0625 15.1875 5.0625H23.625C25.4865 5.0625 27 6.57598 27 8.4375V21.9375ZM12.2344 19.8281C12.2344 20.5295 12.7986 21.0938 13.5 21.0938C14.2014 21.0938 14.7656 20.5295 14.7656 19.8281V16.4531H18.1406C18.842 16.4531 19.4062 15.8889 19.4062 15.1875C19.4062 14.4861 18.842 13.9219 18.1406 13.9219H14.7656V10.5469C14.7656 9.84551 14.2014 9.28125 13.5 9.28125C12.7986 9.28125 12.2344 9.84551 12.2344 10.5469V13.9219H8.85938C8.15801 13.9219 7.59375 14.4861 7.59375 15.1875C7.59375 15.8889 8.15801 16.4531 8.85938 16.4531H12.2344V19.8281Z" fill="#62D3B7"/>
</svg>
