<svg width="246" height="280" viewBox="0 0 246 280" fill="none" xmlns="http://www.w3.org/2000/svg">
<g clip-path="url(#clip0_19_80)">
<path d="M79.25 78.75V105H166.75V78.75C166.75 54.5781 147.172 35 123 35C98.8281 35 79.25 54.5781 79.25 78.75ZM44.25 105V78.75C44.25 35.2734 79.5234 0 123 0C166.477 0 201.75 35.2734 201.75 78.75V105H210.5C229.805 105 245.5 120.695 245.5 140V245C245.5 264.305 229.805 280 210.5 280H35.5C16.1953 280 0.5 264.305 0.5 245V140C0.5 120.695 16.1953 105 35.5 105H44.25Z" fill="white"/>
</g>
<defs>
<clipPath id="clip0_19_80">
<rect width="245" height="280" fill="white" transform="translate(0.5)"/>
</clipPath>
</defs>
</svg>
