<svg width="35" height="35" viewBox="0 0 35 35" fill="none" xmlns="http://www.w3.org/2000/svg">
<g clip-path="url(#clip0_14_58)">
<path d="M32.2383 1.4834C30.7412 -0.0136719 28.3213 -0.0136719 26.8242 1.4834L24.7666 3.53418L31.459 10.2266L33.5166 8.16895C35.0137 6.67188 35.0137 4.25195 33.5166 2.75488L32.2383 1.4834ZM11.7852 16.5225C11.3682 16.9395 11.0469 17.4522 10.8623 18.0195L8.83887 24.0898C8.64062 24.6777 8.79785 25.3272 9.23535 25.7715C9.67285 26.2158 10.3223 26.3662 10.917 26.168L16.9873 24.1445C17.5479 23.96 18.0605 23.6387 18.4844 23.2217L29.9209 11.7783L23.2217 5.0791L11.7852 16.5225ZM6.5625 4.375C2.93945 4.375 0 7.31445 0 10.9375V28.4375C0 32.0606 2.93945 35 6.5625 35H24.0625C27.6855 35 30.625 32.0606 30.625 28.4375V21.875C30.625 20.665 29.6475 19.6875 28.4375 19.6875C27.2275 19.6875 26.25 20.665 26.25 21.875V28.4375C26.25 29.6475 25.2725 30.625 24.0625 30.625H6.5625C5.35254 30.625 4.375 29.6475 4.375 28.4375V10.9375C4.375 9.72754 5.35254 8.75 6.5625 8.75H13.125C14.335 8.75 15.3125 7.77246 15.3125 6.5625C15.3125 5.35254 14.335 4.375 13.125 4.375H6.5625Z" fill="white"/>
</g>
<defs>
<clipPath id="clip0_14_58">
<rect width="35" height="35" fill="white"/>
</clipPath>
</defs>
</svg>
