<svg width="21" height="27" viewBox="0 0 21 27" fill="none" xmlns="http://www.w3.org/2000/svg">
<g clip-path="url(#clip0_13_28)">
<path d="M3.5 0C1.56953 0 0 1.51348 0 3.375V23.625C0 25.4865 1.56953 27 3.5 27H17.5C19.4305 27 21 25.4865 21 23.625V8.4375H14C13.032 8.4375 12.25 7.6834 12.25 6.75V0H3.5ZM14 0V6.75H21L14 0ZM6.125 13.5H14.875C15.3562 13.5 15.75 13.8797 15.75 14.3438C15.75 14.8078 15.3562 15.1875 14.875 15.1875H6.125C5.64375 15.1875 5.25 14.8078 5.25 14.3438C5.25 13.8797 5.64375 13.5 6.125 13.5ZM6.125 16.875H14.875C15.3562 16.875 15.75 17.2547 15.75 17.7188C15.75 18.1828 15.3562 18.5625 14.875 18.5625H6.125C5.64375 18.5625 5.25 18.1828 5.25 17.7188C5.25 17.2547 5.64375 16.875 6.125 16.875ZM6.125 20.25H14.875C15.3562 20.25 15.75 20.6297 15.75 21.0938C15.75 21.5578 15.3562 21.9375 14.875 21.9375H6.125C5.64375 21.9375 5.25 21.5578 5.25 21.0938C5.25 20.6297 5.64375 20.25 6.125 20.25Z" fill="#62D3B7"/>
</g>
<defs>
<clipPath id="clip0_13_28">
<rect width="21" height="27" fill="white"/>
</clipPath>
</defs>
</svg>
