<svg width="27" height="27" viewBox="0 0 27 27" fill="none" xmlns="http://www.w3.org/2000/svg">
<path d="M19.9283 5.58457L26.4041 12.0604C26.7838 12.44 27 12.9621 27 13.5C27 14.0379 26.7838 14.56 26.4041 14.9396L19.9283 21.4154C19.5908 21.7529 19.1373 21.9375 18.6627 21.9375C17.6766 21.9375 16.875 21.1359 16.875 20.1498V16.875H10.125C9.1916 16.875 8.4375 16.1209 8.4375 15.1875V11.8125C8.4375 10.8791 9.1916 10.125 10.125 10.125H16.875V6.85019C16.875 5.86406 17.6766 5.0625 18.6627 5.0625C19.1373 5.0625 19.5908 5.25234 19.9283 5.58457ZM8.4375 5.0625H5.0625C4.1291 5.0625 3.375 5.8166 3.375 6.75V20.25C3.375 21.1834 4.1291 21.9375 5.0625 21.9375H8.4375C9.3709 21.9375 10.125 22.6916 10.125 23.625C10.125 24.5584 9.3709 25.3125 8.4375 25.3125H5.0625C2.26758 25.3125 0 23.0449 0 20.25V6.75C0 3.95508 2.26758 1.6875 5.0625 1.6875H8.4375C9.3709 1.6875 10.125 2.4416 10.125 3.375C10.125 4.3084 9.3709 5.0625 8.4375 5.0625Z" fill="#62D3B7"/>
</svg>
