<svg width="27" height="27" viewBox="0 0 27 27" fill="none" xmlns="http://www.w3.org/2000/svg">
<path d="M14.9689 0.949113C14.6979 0.369099 14.1252 0 13.4963 0C12.8674 0 12.2999 0.369099 12.0238 0.949113L8.73604 7.92509L1.39365 9.04293C0.780076 9.13784 0.268767 9.58076 0.0795824 10.1871C-0.109602 10.7935 0.0437907 11.4632 0.483516 11.9114L5.81136 17.3477L4.55354 25.0302C4.45127 25.6629 4.70693 26.3062 5.21312 26.6806C5.71932 27.055 6.38913 27.1024 6.94135 26.8019L13.5014 23.19L20.0615 26.8019C20.6137 27.1024 21.2836 27.0603 21.7898 26.6806C22.296 26.301 22.5516 25.6629 22.4493 25.0302L21.1864 17.3477L26.5143 11.9114C26.954 11.4632 27.1125 10.7935 26.9182 10.1871C26.7239 9.58076 26.2177 9.13784 25.6041 9.04293L18.2566 7.92509L14.9689 0.949113Z" fill="#62D3B7"/>
</svg>
