<svg width="78" height="78" viewBox="0 0 78 78" fill="none" xmlns="http://www.w3.org/2000/svg">
<rect width="78" height="78" rx="17" fill="#C7C7C7"/>
<g clip-path="url(#clip0_16_73)">
<path d="M17.4236 31.4863L18.4701 33.3121C19.3941 34.9264 20.9082 36.1176 22.7006 36.6297L29.1465 38.4666C31.0613 39.0121 32.375 40.76 32.375 42.7527V47.1947C32.375 48.4193 33.0652 49.5326 34.1562 50.0781C35.2473 50.6236 35.9375 51.7369 35.9375 52.9615V57.3033C35.9375 59.04 37.5963 60.298 39.2662 59.8193C41.0586 59.3072 42.4502 57.8711 42.9066 56.0564L43.2184 54.8096C43.6859 52.9281 44.9105 51.3139 46.5916 50.3564L47.4934 49.8443C49.1633 48.898 50.1875 47.1168 50.1875 45.202V44.2779C50.1875 42.8641 49.6197 41.5059 48.6178 40.5039L48.1836 40.0697C47.1816 39.0678 45.8234 38.5 44.4096 38.5H39.6113C38.3756 38.5 37.151 38.1771 36.0711 37.5648L32.2303 35.3717C31.7516 35.0934 31.3842 34.648 31.2061 34.1248C30.8498 33.0561 31.3285 31.8982 32.3416 31.3973L32.9984 31.0633C33.7332 30.6959 34.5904 30.6291 35.3697 30.8963L37.9525 31.7535C38.8654 32.0541 39.8674 31.709 40.3906 30.9186C40.9139 30.1393 40.8582 29.1039 40.257 28.3803L38.743 26.5656C37.6297 25.2297 37.6408 23.2814 38.7764 21.9678L40.5242 19.9305C41.5039 18.7838 41.6598 17.1473 40.9139 15.8447L40.6467 15.3771C40.257 15.3549 39.8785 15.3438 39.4889 15.3438C29.1576 15.3438 20.3961 22.1236 17.4236 31.4863ZM62.6562 38.5C62.6562 34.4031 61.5875 30.5512 59.7172 27.2002L56.8672 28.3469C55.1193 29.0482 54.2176 30.9965 54.8076 32.7777L56.6891 38.4221C57.0787 39.5799 58.025 40.4594 59.2051 40.7488L62.4447 41.5615C62.5783 40.5596 62.6451 39.5354 62.6451 38.5H62.6562ZM11 38.5C11 30.9413 14.0027 23.6922 19.3475 18.3475C24.6922 13.0027 31.9413 10 39.5 10C47.0587 10 54.3078 13.0027 59.6525 18.3475C64.9973 23.6922 68 30.9413 68 38.5C68 46.0587 64.9973 53.3078 59.6525 58.6525C54.3078 63.9973 47.0587 67 39.5 67C31.9413 67 24.6922 63.9973 19.3475 58.6525C14.0027 53.3078 11 46.0587 11 38.5Z" fill="#595959"/>
</g>
<defs>
<clipPath id="clip0_16_73">
<rect x="11" y="10" width="57" height="57" rx="17" fill="white"/>
</clipPath>
</defs>
</svg>
